<mxfile modified="2022-11-19T01:42:18.332Z" host="app.diagrams.net" agent="5.0 (Macintosh; Intel Mac OS X 10_15_7) AppleWebKit/537.36 (KHTML, like Gecko) Chrome/107.0.0.0 Safari/537.36" etag="GX87q1oB4FtWlUxzAQPv" version="20.3.7" type="github">
  <diagram id="Ht1M8jgEwFfnCIfOTk4-" name="Page-1">
    <mxGraphModel dx="1843" dy="1890" grid="1" gridSize="10" guides="1" tooltips="1" connect="1" arrows="1" fold="1" page="1" pageScale="1" pageWidth="1169" pageHeight="827" math="0" shadow="0">
      <root>
        <mxCell id="0" />
        <mxCell id="1" parent="0" />
        <mxCell id="ZVABF5QaFDFf9c9_2nNC-2" value="" style="sketch=0;outlineConnect=0;fontColor=#232F3E;gradientColor=none;fillColor=#3F8624;strokeColor=none;dashed=0;verticalLabelPosition=bottom;verticalAlign=top;align=center;html=1;fontSize=12;fontStyle=0;aspect=fixed;pointerEvents=1;shape=mxgraph.aws4.bucket;" vertex="1" parent="1">
          <mxGeometry x="125" y="-648" width="75" height="78" as="geometry" />
        </mxCell>
        <mxCell id="ZVABF5QaFDFf9c9_2nNC-5" value="" style="sketch=0;outlineConnect=0;fontColor=#232F3E;gradientColor=none;fillColor=#3F8624;strokeColor=none;dashed=0;verticalLabelPosition=bottom;verticalAlign=top;align=center;html=1;fontSize=12;fontStyle=0;aspect=fixed;pointerEvents=1;shape=mxgraph.aws4.bucket;" vertex="1" parent="1">
          <mxGeometry x="607.5" y="-488.5" width="75" height="78" as="geometry" />
        </mxCell>
        <mxCell id="ZVABF5QaFDFf9c9_2nNC-6" value="" style="outlineConnect=0;dashed=0;verticalLabelPosition=bottom;verticalAlign=top;align=center;html=1;shape=mxgraph.aws3.lambda_function;fillColor=#F58534;gradientColor=none;" vertex="1" parent="1">
          <mxGeometry x="300.5" y="-645" width="69" height="72" as="geometry" />
        </mxCell>
        <mxCell id="ZVABF5QaFDFf9c9_2nNC-7" value="" style="outlineConnect=0;dashed=0;verticalLabelPosition=bottom;verticalAlign=top;align=center;html=1;shape=mxgraph.aws3.lambda_function;fillColor=#F58534;gradientColor=none;" vertex="1" parent="1">
          <mxGeometry x="300.5" y="-460" width="69" height="72" as="geometry" />
        </mxCell>
        <mxCell id="ZVABF5QaFDFf9c9_2nNC-9" value="&lt;font color=&quot;#232f3e&quot;&gt;&lt;span style=&quot;background-color: rgb(255, 255, 255);&quot;&gt;Trigger AI Metadata Correction&lt;/span&gt;&lt;/font&gt;" style="text;whiteSpace=wrap;html=1;align=center;" vertex="1" parent="1">
          <mxGeometry x="275" y="-573" width="120" height="50" as="geometry" />
        </mxCell>
        <mxCell id="ZVABF5QaFDFf9c9_2nNC-10" value="&lt;font color=&quot;#232f3e&quot;&gt;&lt;span style=&quot;background-color: rgb(255, 255, 255);&quot;&gt;Infer Body Part&lt;/span&gt;&lt;/font&gt;" style="text;whiteSpace=wrap;html=1;align=center;" vertex="1" parent="1">
          <mxGeometry x="288.5" y="-386" width="95" height="50" as="geometry" />
        </mxCell>
        <mxCell id="ZVABF5QaFDFf9c9_2nNC-12" value="&lt;font color=&quot;#232f3e&quot;&gt;&lt;span style=&quot;background-color: rgb(255, 255, 255);&quot;&gt;S3 Storage&lt;br&gt;&lt;/span&gt;&lt;/font&gt;(Staging)" style="text;whiteSpace=wrap;html=1;align=center;" vertex="1" parent="1">
          <mxGeometry x="120" y="-570" width="80" height="50" as="geometry" />
        </mxCell>
        <mxCell id="ZVABF5QaFDFf9c9_2nNC-13" value="&lt;font color=&quot;#232f3e&quot;&gt;&lt;span style=&quot;background-color: rgb(255, 255, 255);&quot;&gt;S3 Storage&lt;br&gt;&lt;/span&gt;&lt;/font&gt;(Curie Input)" style="text;whiteSpace=wrap;html=1;align=center;" vertex="1" parent="1">
          <mxGeometry x="453.5" y="-562" width="80" height="50" as="geometry" />
        </mxCell>
        <mxCell id="ZVABF5QaFDFf9c9_2nNC-14" value="&lt;font color=&quot;#232f3e&quot;&gt;&lt;span style=&quot;background-color: rgb(255, 255, 255);&quot;&gt;S3 Storage&lt;br&gt;&lt;/span&gt;&lt;/font&gt;(Curie Output)" style="text;whiteSpace=wrap;html=1;align=center;" vertex="1" parent="1">
          <mxGeometry x="602" y="-410.5" width="80" height="50" as="geometry" />
        </mxCell>
        <mxCell id="ZVABF5QaFDFf9c9_2nNC-15" value="" style="endArrow=classic;html=1;rounded=0;" edge="1" parent="1">
          <mxGeometry width="50" height="50" relative="1" as="geometry">
            <mxPoint x="215" y="-610" as="sourcePoint" />
            <mxPoint x="295" y="-610" as="targetPoint" />
          </mxGeometry>
        </mxCell>
        <mxCell id="ZVABF5QaFDFf9c9_2nNC-16" value="" style="endArrow=classic;html=1;rounded=0;" edge="1" parent="1">
          <mxGeometry width="50" height="50" relative="1" as="geometry">
            <mxPoint x="325" y="-530" as="sourcePoint" />
            <mxPoint x="325" y="-470" as="targetPoint" />
          </mxGeometry>
        </mxCell>
        <mxCell id="ZVABF5QaFDFf9c9_2nNC-17" value="" style="endArrow=classic;html=1;rounded=0;" edge="1" parent="1">
          <mxGeometry width="50" height="50" relative="1" as="geometry">
            <mxPoint x="345" y="-470" as="sourcePoint" />
            <mxPoint x="345" y="-530" as="targetPoint" />
          </mxGeometry>
        </mxCell>
        <mxCell id="ZVABF5QaFDFf9c9_2nNC-19" value="" style="endArrow=classic;html=1;rounded=0;" edge="1" parent="1">
          <mxGeometry width="50" height="50" relative="1" as="geometry">
            <mxPoint x="375" y="-610" as="sourcePoint" />
            <mxPoint x="455" y="-610" as="targetPoint" />
          </mxGeometry>
        </mxCell>
        <mxCell id="ZVABF5QaFDFf9c9_2nNC-20" value="" style="outlineConnect=0;dashed=0;verticalLabelPosition=bottom;verticalAlign=top;align=center;html=1;shape=mxgraph.aws3.lambda_function;fillColor=#F58534;gradientColor=none;" vertex="1" parent="1">
          <mxGeometry x="610.5" y="-645" width="69" height="72" as="geometry" />
        </mxCell>
        <mxCell id="ZVABF5QaFDFf9c9_2nNC-23" value="" style="strokeWidth=2;html=1;shape=mxgraph.flowchart.database;whiteSpace=wrap;" vertex="1" parent="1">
          <mxGeometry x="755" y="-639" width="140" height="60" as="geometry" />
        </mxCell>
        <mxCell id="ZVABF5QaFDFf9c9_2nNC-25" value="" style="endArrow=classic;html=1;rounded=0;" edge="1" parent="1">
          <mxGeometry width="50" height="50" relative="1" as="geometry">
            <mxPoint x="545" y="-610.24" as="sourcePoint" />
            <mxPoint x="600" y="-610" as="targetPoint" />
          </mxGeometry>
        </mxCell>
        <mxCell id="ZVABF5QaFDFf9c9_2nNC-29" value="" style="endArrow=classic;html=1;rounded=0;" edge="1" parent="1">
          <mxGeometry width="50" height="50" relative="1" as="geometry">
            <mxPoint x="685.5" y="-609.33" as="sourcePoint" />
            <mxPoint x="740.5" y="-609.09" as="targetPoint" />
          </mxGeometry>
        </mxCell>
        <mxCell id="ZVABF5QaFDFf9c9_2nNC-30" value="" style="endArrow=classic;html=1;rounded=0;" edge="1" parent="1">
          <mxGeometry width="50" height="50" relative="1" as="geometry">
            <mxPoint x="641.55" y="-548.5" as="sourcePoint" />
            <mxPoint x="642" y="-500" as="targetPoint" />
          </mxGeometry>
        </mxCell>
        <mxCell id="ZVABF5QaFDFf9c9_2nNC-32" value="&lt;font color=&quot;#232f3e&quot;&gt;&lt;span style=&quot;background-color: rgb(255, 255, 255);&quot;&gt;Datastore&lt;/span&gt;&lt;/font&gt;" style="text;whiteSpace=wrap;html=1;align=center;" vertex="1" parent="1">
          <mxGeometry x="785" y="-616" width="80" height="22" as="geometry" />
        </mxCell>
        <mxCell id="ZVABF5QaFDFf9c9_2nNC-50" value="&lt;font color=&quot;#232f3e&quot;&gt;&lt;span style=&quot;background-color: rgb(255, 255, 255);&quot;&gt;Start ImportJob&lt;/span&gt;&lt;/font&gt;" style="text;whiteSpace=wrap;html=1;align=center;" vertex="1" parent="1">
          <mxGeometry x="597.5" y="-574" width="95" height="50" as="geometry" />
        </mxCell>
        <mxCell id="ZVABF5QaFDFf9c9_2nNC-53" value="" style="sketch=0;outlineConnect=0;fontColor=#232F3E;gradientColor=none;fillColor=#3F8624;strokeColor=none;dashed=0;verticalLabelPosition=bottom;verticalAlign=top;align=center;html=1;fontSize=12;fontStyle=0;aspect=fixed;pointerEvents=1;shape=mxgraph.aws4.bucket;" vertex="1" parent="1">
          <mxGeometry x="400" y="300.5" width="75" height="78" as="geometry" />
        </mxCell>
        <mxCell id="ZVABF5QaFDFf9c9_2nNC-59" value="&lt;font color=&quot;#232f3e&quot;&gt;&lt;span style=&quot;background-color: rgb(255, 255, 255);&quot;&gt;S3 Storage&lt;br&gt;&lt;/span&gt;&lt;/font&gt;(Curie Input)" style="text;whiteSpace=wrap;html=1;align=center;" vertex="1" parent="1">
          <mxGeometry x="209.55" y="227" width="80" height="50" as="geometry" />
        </mxCell>
        <mxCell id="ZVABF5QaFDFf9c9_2nNC-65" value="" style="outlineConnect=0;dashed=0;verticalLabelPosition=bottom;verticalAlign=top;align=center;html=1;shape=mxgraph.aws3.lambda_function;fillColor=#F58534;gradientColor=none;" vertex="1" parent="1">
          <mxGeometry x="403" y="144" width="69" height="72" as="geometry" />
        </mxCell>
        <mxCell id="ZVABF5QaFDFf9c9_2nNC-66" value="" style="strokeWidth=2;html=1;shape=mxgraph.flowchart.database;whiteSpace=wrap;" vertex="1" parent="1">
          <mxGeometry x="547.5" y="150" width="140" height="60" as="geometry" />
        </mxCell>
        <mxCell id="ZVABF5QaFDFf9c9_2nNC-67" value="" style="endArrow=classic;html=1;rounded=0;" edge="1" parent="1">
          <mxGeometry width="50" height="50" relative="1" as="geometry">
            <mxPoint x="310" y="179" as="sourcePoint" />
            <mxPoint x="392.5" y="179" as="targetPoint" />
          </mxGeometry>
        </mxCell>
        <mxCell id="ZVABF5QaFDFf9c9_2nNC-68" value="" style="endArrow=classic;html=1;rounded=0;" edge="1" parent="1">
          <mxGeometry width="50" height="50" relative="1" as="geometry">
            <mxPoint x="478" y="179.67000000000007" as="sourcePoint" />
            <mxPoint x="533" y="179.90999999999985" as="targetPoint" />
          </mxGeometry>
        </mxCell>
        <mxCell id="ZVABF5QaFDFf9c9_2nNC-69" value="" style="endArrow=classic;html=1;rounded=0;" edge="1" parent="1">
          <mxGeometry width="50" height="50" relative="1" as="geometry">
            <mxPoint x="434.0500000000002" y="240.5" as="sourcePoint" />
            <mxPoint x="434.5" y="289" as="targetPoint" />
          </mxGeometry>
        </mxCell>
        <mxCell id="ZVABF5QaFDFf9c9_2nNC-70" value="&lt;font color=&quot;#232f3e&quot;&gt;&lt;span style=&quot;background-color: rgb(255, 255, 255);&quot;&gt;Datastore&lt;/span&gt;&lt;/font&gt;" style="text;whiteSpace=wrap;html=1;align=center;" vertex="1" parent="1">
          <mxGeometry x="577.5" y="173" width="80" height="22" as="geometry" />
        </mxCell>
        <mxCell id="ZVABF5QaFDFf9c9_2nNC-72" value="" style="endArrow=classic;html=1;rounded=0;" edge="1" parent="1">
          <mxGeometry width="50" height="50" relative="1" as="geometry">
            <mxPoint x="485" y="348.73" as="sourcePoint" />
            <mxPoint x="540" y="348.9699999999998" as="targetPoint" />
          </mxGeometry>
        </mxCell>
        <mxCell id="ZVABF5QaFDFf9c9_2nNC-80" value="&lt;font color=&quot;#232f3e&quot;&gt;&lt;span style=&quot;background-color: rgb(255, 255, 255);&quot;&gt;Datastore Id, Study Id, Metadata, DICOM object URI,&lt;br&gt;ML Annotations&lt;br&gt;&lt;/span&gt;&lt;/font&gt;" style="text;whiteSpace=wrap;html=1;align=center;" vertex="1" parent="1">
          <mxGeometry x="632" y="495.5" width="168" height="50" as="geometry" />
        </mxCell>
        <mxCell id="ZVABF5QaFDFf9c9_2nNC-81" value="" style="outlineConnect=0;dashed=0;verticalLabelPosition=bottom;verticalAlign=top;align=center;html=1;shape=mxgraph.aws3.lambda_function;fillColor=#F58534;gradientColor=none;" vertex="1" parent="1">
          <mxGeometry x="547.5" y="310.5" width="69" height="72" as="geometry" />
        </mxCell>
        <mxCell id="ZVABF5QaFDFf9c9_2nNC-83" value="&lt;font color=&quot;#232f3e&quot;&gt;&lt;span style=&quot;background-color: rgb(255, 255, 255);&quot;&gt;Start ImportJob&amp;nbsp;&lt;br&gt;&lt;/span&gt;&lt;/font&gt;" style="text;whiteSpace=wrap;html=1;align=center;" vertex="1" parent="1">
          <mxGeometry x="390" y="215" width="95" height="50" as="geometry" />
        </mxCell>
        <mxCell id="ZVABF5QaFDFf9c9_2nNC-86" value="" style="outlineConnect=0;dashed=0;verticalLabelPosition=bottom;verticalAlign=top;align=center;html=1;shape=mxgraph.aws3.lambda_function;fillColor=#F58534;gradientColor=none;" vertex="1" parent="1">
          <mxGeometry x="692.5" y="310.5" width="69" height="72" as="geometry" />
        </mxCell>
        <mxCell id="ZVABF5QaFDFf9c9_2nNC-87" value="" style="endArrow=classic;html=1;rounded=0;" edge="1" parent="1">
          <mxGeometry width="50" height="50" relative="1" as="geometry">
            <mxPoint x="579.91" y="388.5" as="sourcePoint" />
            <mxPoint x="579.99" y="470" as="targetPoint" />
          </mxGeometry>
        </mxCell>
        <mxCell id="ZVABF5QaFDFf9c9_2nNC-89" value="&lt;font color=&quot;#232f3e&quot;&gt;&lt;span style=&quot;background-color: rgb(255, 255, 255);&quot;&gt;HJT2k&lt;br&gt;Decoder&lt;br&gt;&lt;/span&gt;&lt;/font&gt;" style="text;whiteSpace=wrap;html=1;align=center;" vertex="1" parent="1">
          <mxGeometry x="682" y="382.5" width="95" height="45" as="geometry" />
        </mxCell>
        <mxCell id="ZVABF5QaFDFf9c9_2nNC-93" value="" style="endArrow=classic;html=1;rounded=0;" edge="1" parent="1">
          <mxGeometry width="50" height="50" relative="1" as="geometry">
            <mxPoint x="777" y="338.31" as="sourcePoint" />
            <mxPoint x="832" y="338.5499999999998" as="targetPoint" />
          </mxGeometry>
        </mxCell>
        <mxCell id="ZVABF5QaFDFf9c9_2nNC-94" value="" style="endArrow=classic;html=1;rounded=0;" edge="1" parent="1">
          <mxGeometry width="50" height="50" relative="1" as="geometry">
            <mxPoint x="834" y="356.5499999999998" as="sourcePoint" />
            <mxPoint x="779" y="356.31" as="targetPoint" />
          </mxGeometry>
        </mxCell>
        <mxCell id="ZVABF5QaFDFf9c9_2nNC-95" value="" style="endArrow=classic;html=1;rounded=0;" edge="1" parent="1">
          <mxGeometry width="50" height="50" relative="1" as="geometry">
            <mxPoint x="729" y="180" as="sourcePoint" />
            <mxPoint x="729" y="300.5" as="targetPoint" />
          </mxGeometry>
        </mxCell>
        <mxCell id="ZVABF5QaFDFf9c9_2nNC-96" value="" style="endArrow=none;html=1;rounded=0;" edge="1" parent="1">
          <mxGeometry width="50" height="50" relative="1" as="geometry">
            <mxPoint x="700" y="180" as="sourcePoint" />
            <mxPoint x="729.5" y="180" as="targetPoint" />
          </mxGeometry>
        </mxCell>
        <mxCell id="ZVABF5QaFDFf9c9_2nNC-97" value="&lt;font color=&quot;#232f3e&quot;&gt;&lt;span style=&quot;background-color: rgb(255, 255, 255);&quot;&gt;Get ImageFrame&lt;/span&gt;&lt;/font&gt;" style="text;whiteSpace=wrap;html=1;align=center;" vertex="1" parent="1">
          <mxGeometry x="739" y="240" width="95" height="50" as="geometry" />
        </mxCell>
        <mxCell id="ZVABF5QaFDFf9c9_2nNC-98" value="" style="endArrow=classic;html=1;rounded=0;" edge="1" parent="1">
          <mxGeometry width="50" height="50" relative="1" as="geometry">
            <mxPoint x="585" y="216" as="sourcePoint" />
            <mxPoint x="585" y="300" as="targetPoint" />
          </mxGeometry>
        </mxCell>
        <mxCell id="ZVABF5QaFDFf9c9_2nNC-99" value="&lt;font color=&quot;#232f3e&quot;&gt;&lt;span style=&quot;background-color: rgb(255, 255, 255);&quot;&gt;Get MetaData&lt;/span&gt;&lt;/font&gt;" style="text;whiteSpace=wrap;html=1;align=center;" vertex="1" parent="1">
          <mxGeometry x="584.5" y="240" width="95" height="50" as="geometry" />
        </mxCell>
        <mxCell id="ZVABF5QaFDFf9c9_2nNC-100" value="" style="endArrow=classic;html=1;rounded=0;" edge="1" parent="1">
          <mxGeometry width="50" height="50" relative="1" as="geometry">
            <mxPoint x="136.3" y="173" as="sourcePoint" />
            <mxPoint x="196.3" y="173" as="targetPoint" />
          </mxGeometry>
        </mxCell>
        <mxCell id="ZVABF5QaFDFf9c9_2nNC-103" value="" style="sketch=0;points=[[0,0,0],[0.25,0,0],[0.5,0,0],[0.75,0,0],[1,0,0],[0,1,0],[0.25,1,0],[0.5,1,0],[0.75,1,0],[1,1,0],[0,0.25,0],[0,0.5,0],[0,0.75,0],[1,0.25,0],[1,0.5,0],[1,0.75,0]];outlineConnect=0;fontColor=#232F3E;gradientColor=#4AB29A;gradientDirection=north;fillColor=#116D5B;strokeColor=#ffffff;dashed=0;verticalLabelPosition=bottom;verticalAlign=top;align=center;html=1;fontSize=12;fontStyle=0;aspect=fixed;shape=mxgraph.aws4.resourceIcon;resIcon=mxgraph.aws4.machine_learning;strokeWidth=5;" vertex="1" parent="1">
          <mxGeometry x="850" y="307.5" width="78" height="78" as="geometry" />
        </mxCell>
        <mxCell id="ZVABF5QaFDFf9c9_2nNC-104" value="&lt;font color=&quot;#232f3e&quot;&gt;&lt;span style=&quot;background-color: rgb(255, 255, 255);&quot;&gt;ML/AI Server&lt;br&gt;&lt;/span&gt;&lt;/font&gt;" style="text;whiteSpace=wrap;html=1;align=center;" vertex="1" parent="1">
          <mxGeometry x="841.5" y="388.5" width="95" height="45" as="geometry" />
        </mxCell>
        <mxCell id="ZVABF5QaFDFf9c9_2nNC-106" value="" style="shadow=0;dashed=0;html=1;labelPosition=center;verticalLabelPosition=bottom;verticalAlign=top;align=center;outlineConnect=0;shape=mxgraph.veeam.3d.backup_repository;strokeColor=#FF0000;strokeWidth=5;fillColor=#FF0008;" vertex="1" parent="1">
          <mxGeometry x="59.999999999999986" y="133" width="62" height="62" as="geometry" />
        </mxCell>
        <mxCell id="ZVABF5QaFDFf9c9_2nNC-107" value="&lt;font color=&quot;#232f3e&quot;&gt;&lt;span style=&quot;background-color: rgb(255, 255, 255);&quot;&gt;DICOM &lt;br&gt;image&lt;/span&gt;&lt;/font&gt;" style="text;whiteSpace=wrap;html=1;align=center;" vertex="1" parent="1">
          <mxGeometry x="116.3" y="133" width="95" height="50" as="geometry" />
        </mxCell>
        <mxCell id="ZVABF5QaFDFf9c9_2nNC-109" value="&lt;font color=&quot;#232f3e&quot;&gt;&lt;span style=&quot;background-color: rgb(255, 255, 255);&quot;&gt;S3 Storage&lt;br&gt;&lt;/span&gt;&lt;/font&gt;(Curie Output)" style="text;whiteSpace=wrap;html=1;align=center;" vertex="1" parent="1">
          <mxGeometry x="395" y="379" width="80" height="50" as="geometry" />
        </mxCell>
        <mxCell id="ZVABF5QaFDFf9c9_2nNC-110" value="&lt;font color=&quot;#232f3e&quot;&gt;&lt;span style=&quot;background-color: rgb(255, 255, 255);&quot;&gt;On S3 Upload&lt;/span&gt;&lt;/font&gt;" style="text;whiteSpace=wrap;html=1;align=center;" vertex="1" parent="1">
          <mxGeometry x="282" y="150" width="135" height="50" as="geometry" />
        </mxCell>
        <mxCell id="ZVABF5QaFDFf9c9_2nNC-111" value="" style="sketch=0;outlineConnect=0;fontColor=#232F3E;gradientColor=none;fillColor=#3F8624;strokeColor=none;dashed=0;verticalLabelPosition=bottom;verticalAlign=top;align=center;html=1;fontSize=12;fontStyle=0;aspect=fixed;pointerEvents=1;shape=mxgraph.aws4.bucket;" vertex="1" parent="1">
          <mxGeometry x="220" y="144" width="75" height="78" as="geometry" />
        </mxCell>
        <mxCell id="ZVABF5QaFDFf9c9_2nNC-112" value="&lt;font color=&quot;#232f3e&quot;&gt;&lt;span style=&quot;background-color: rgb(255, 255, 255);&quot;&gt;On upload&lt;br&gt;(if success)&lt;br&gt;&lt;/span&gt;&lt;/font&gt;" style="text;whiteSpace=wrap;html=1;align=center;" vertex="1" parent="1">
          <mxGeometry x="442.5" y="300.5" width="135" height="50" as="geometry" />
        </mxCell>
        <mxCell id="ZVABF5QaFDFf9c9_2nNC-131" value="" style="endArrow=classic;html=1;rounded=0;" edge="1" parent="1">
          <mxGeometry width="50" height="50" relative="1" as="geometry">
            <mxPoint x="624.5" y="349.13999999999993" as="sourcePoint" />
            <mxPoint x="679.5" y="349.3799999999997" as="targetPoint" />
          </mxGeometry>
        </mxCell>
        <mxCell id="ZVABF5QaFDFf9c9_2nNC-135" value="&lt;font color=&quot;#232f3e&quot;&gt;&lt;span style=&quot;background-color: rgb(255, 255, 255);&quot;&gt;Datastore id,&lt;br&gt;Study id,&amp;nbsp;&lt;br&gt;API URL&lt;br&gt;&lt;/span&gt;&lt;/font&gt;" style="text;whiteSpace=wrap;html=1;align=center;" vertex="1" parent="1">
          <mxGeometry x="585.92" y="290" width="135" height="54.5" as="geometry" />
        </mxCell>
        <mxCell id="ZVABF5QaFDFf9c9_2nNC-137" value="" style="endArrow=classic;html=1;rounded=0;" edge="1" parent="1">
          <mxGeometry width="50" height="50" relative="1" as="geometry">
            <mxPoint x="679.5" y="366.5499999999995" as="sourcePoint" />
            <mxPoint x="624.5" y="366.30999999999995" as="targetPoint" />
          </mxGeometry>
        </mxCell>
        <mxCell id="ZVABF5QaFDFf9c9_2nNC-139" value="" style="outlineConnect=0;dashed=0;verticalLabelPosition=bottom;verticalAlign=top;align=center;html=1;shape=mxgraph.aws3.redshift;fillColor=#2E73B8;gradientColor=none;strokeColor=#7EA6E0;strokeWidth=5;" vertex="1" parent="1">
          <mxGeometry x="548.33" y="483.5" width="67.5" height="75" as="geometry" />
        </mxCell>
        <mxCell id="ZVABF5QaFDFf9c9_2nNC-140" value="&lt;font color=&quot;#232f3e&quot;&gt;&lt;span style=&quot;background-color: rgb(255, 255, 255);&quot;&gt;AWS Redshift&lt;/span&gt;&lt;/font&gt;" style="text;whiteSpace=wrap;html=1;align=center;" vertex="1" parent="1">
          <mxGeometry x="539.33" y="561" width="80" height="50" as="geometry" />
        </mxCell>
        <mxCell id="ZVABF5QaFDFf9c9_2nNC-141" value="&lt;font color=&quot;#232f3e&quot;&gt;&lt;span style=&quot;background-color: rgb(255, 255, 255);&quot;&gt;Body part,&lt;br&gt;Storage Class&lt;br&gt;&lt;/span&gt;&lt;/font&gt;" style="text;whiteSpace=wrap;html=1;align=center;" vertex="1" parent="1">
          <mxGeometry x="585.92" y="374.5" width="135" height="54.5" as="geometry" />
        </mxCell>
        <mxCell id="ZVABF5QaFDFf9c9_2nNC-148" value="" style="endArrow=none;html=1;rounded=0;endSize=6;startSize=62;" edge="1" parent="1">
          <mxGeometry width="50" height="50" relative="1" as="geometry">
            <mxPoint x="250" y="440" as="sourcePoint" />
            <mxPoint x="580" y="441" as="targetPoint" />
          </mxGeometry>
        </mxCell>
        <mxCell id="ZVABF5QaFDFf9c9_2nNC-149" value="&lt;font color=&quot;#232f3e&quot;&gt;&lt;span style=&quot;background-color: rgb(255, 255, 255);&quot;&gt;Delete Object&lt;br&gt;&lt;/span&gt;&lt;/font&gt;" style="text;whiteSpace=wrap;html=1;align=center;" vertex="1" parent="1">
          <mxGeometry x="330" y="445.5" width="162" height="50" as="geometry" />
        </mxCell>
        <mxCell id="ZVABF5QaFDFf9c9_2nNC-154" value="" style="endArrow=classic;html=1;rounded=0;" edge="1" parent="1">
          <mxGeometry width="50" height="50" relative="1" as="geometry">
            <mxPoint x="250.89" y="440" as="sourcePoint" />
            <mxPoint x="250" y="265" as="targetPoint" />
          </mxGeometry>
        </mxCell>
        <mxCell id="ZVABF5QaFDFf9c9_2nNC-155" value="" style="sketch=0;outlineConnect=0;fontColor=#232F3E;gradientColor=none;fillColor=#3F8624;strokeColor=none;dashed=0;verticalLabelPosition=bottom;verticalAlign=top;align=center;html=1;fontSize=12;fontStyle=0;aspect=fixed;pointerEvents=1;shape=mxgraph.aws4.bucket;" vertex="1" parent="1">
          <mxGeometry x="458.5" y="-644" width="75" height="78" as="geometry" />
        </mxCell>
      </root>
    </mxGraphModel>
  </diagram>
</mxfile>
